<svg width="21" height="21" fill="none" xmlns="http://www.w3.org/2000/svg"><g clip-path="url(#clip0_1_35)"><path d="M10.5 0C6.48 0 3.212 3.27 3.212 7.288c0 3.868 6.612 12.905 6.894 13.288l.263.357a.162.162 0 00.263 0l.262-.357c.282-.383 6.894-9.42 6.894-13.288C17.788 3.27 14.518 0 10.5 0zm0 4.677c1.44 0 2.61 1.171 2.61 2.61 0 1.44-1.17 2.611-2.61 2.611a2.614 2.614 0 01-2.61-2.61c0-1.44 1.17-2.61 2.61-2.61z" fill="#fff"/></g><defs><clipPath id="clip0_1_35"><path fill="#fff" d="M0 0h21v21H0z"/></clipPath></defs></svg>