<svg width="212" height="51" fill="none" xmlns="http://www.w3.org/2000/svg"><path fill-rule="evenodd" clip-rule="evenodd" d="M39.66 7.604h-7.387c-1.029 0-1.471.39-1.819 1.544l-9.633 32.003a2.82 2.82 0 00-.127.82c0 1.002.76 1.116 1.472 1.116h172.256l-1.329 4.392H13.497c-1.945 0-4.144-1.469-4.144-4.04 0-.782.19-1.562.411-2.288l11.2-37.662c.585-1.973 2.357-3.463 4.144-3.463h16.75L39.66 7.604z" fill="#9CA09E"/><path fill-rule="evenodd" clip-rule="evenodd" d="M34.582 39.792h-.032c-1.93 0-4.081-.615-4.081-3.388 0-.371.047-.726.16-1.08l6.042-20.59c.664-2.29 2.246-3.723 4.334-3.723h10.772c1.772 0 3.29 1.47 3.29 3.687 0 .65-.111 1.303-.3 1.917l-5.964 19.734c-.696 2.308-2.246 3.443-4.302 3.443h-9.919zm17.86 0l8.572-28.78h7.404l-1.155 3.573 2.864-3.574h5.299c1.581 0 3.163 1.377 3.163 3.37 0 .819-.222 1.619-.459 2.383l-7.054 23.028h-7.403l7.403-24.37h-3.812l-7.34 24.37h-7.483zm25.371-7.95h7.483l-1.14 3.481h3.828l2.294-7.799H79.11l3.86-13.088c.648-2.196 2.293-3.425 4.238-3.425h11.31c1.518 0 3.163 1.135 3.163 3.147 0 .428-.079.856-.189 1.266l-1.313 4.747h-7.593l1.376-4.747h-3.685l-2.294 7.745h11.31l-3.955 13.479c-.649 2.252-2.53 3.145-4.397 3.145H80.058c-1.629 0-3.29-1.08-3.29-3.239 0-.427.064-.836.159-1.228l.886-3.483zm21.591 7.95l7.293-24.37h-3.26l1.345-4.41h3.227l1.803-5.884h7.198l-1.583 5.883h2.801l-1.392 4.412h-2.737l-7.402 24.369h-7.293zm12.148 0l8.684-28.78h7.925c1.55 0 3.274.763 3.4 2.829a5.595 5.595 0 01-.236 1.917l-1.33 4.413h-3.194l1.36-4.747h-1.756l-7.325 24.369-7.528-.001zm23.047-28.78h7.323l-7.323 24.313h3.813l7.449-24.314h7.497l-8.573 28.78h-7.497l1.123-3.106-2.817 3.107h-4.951c-1.472 0-3.495-.576-3.495-2.756 0-.594.142-1.173.3-1.711l7.151-24.314zm26.241 28.78h-7.356c-1.534 0-2.878-1.451-2.878-3.295 0-.392.063-.8.174-1.172l5.948-19.902c.678-2.27 1.834-4.412 4.111-4.412h7.402l-1.265 4.412h-3.052l-6.011 19.902h4.097l-1.17 4.467zm2.657 0l7.482-24.37h-2.324l1.392-4.41h2.023l1.726-5.884h7.609l-1.631 5.883h2.754l-1.123 4.412h-2.991l-7.435 24.369h-7.482zm31.875 0h-7.783l1.077-2.902-2.849 2.902h-5.377c-1.489 0-3.149-.968-3.149-2.96 0-.502.095-1.025.253-1.507l3.861-12.158.38-1.359c.458-1.564 1.929-2.643 3.304-2.643h8.479l1.108-3.742H184.49l1.327-4.412h13.318c1.456 0 3.512.56 3.512 2.7 0 .576-.189 1.172-.333 1.712l-6.942 24.369z" fill="#9CA09E"/><path fill-rule="evenodd" clip-rule="evenodd" d="M37.984 35.323h3.795l5.932-19.9h-3.78l-5.947 19.9zm147.201 0h3.48l3.559-11.245h-3.559l-3.48 11.245z" fill="#fff"/></svg>