<svg width="258" height="43" fill="none" xmlns="http://www.w3.org/2000/svg"><g clip-path="url(#clip0_1_856)" fill="#9CA09E"><path d="M1.987 39.864V3.136c0-.349.3-.657.673-.657h43.922a.67.67 0 01.662.657v36.728c0 .37-.3.667-.662.667H2.66a.668.668 0 01-.673-.667zM2.66.5C1.19.5 0 1.69 0 3.136v36.728C0 41.321 1.19 42.5 2.66 42.5h43.922c1.46 0 2.65-1.18 2.65-2.636V3.136A2.645 2.645 0 0046.582.5H2.66z"/><path d="M40.133 25.66l-12.391-.042a1.509 1.509 0 01-1.522-1.497c0-.329.114-.626.29-.872l6.325-6.308c.28-.338.61-.451 1.087-.451a1.5 1.5 0 01.973.349l6.48 6.461a1.5 1.5 0 01.259.841 1.495 1.495 0 01-1.501 1.518zm-18.581-.042l-12.401.03a1.506 1.506 0 01-1.501-1.507c0-.308.093-.595.248-.84l6.49-6.462c.28-.226.632-.35.984-.35.476 0 .807.114 1.087.452l6.325 6.308c.165.246.28.543.28.872a1.5 1.5 0 01-1.512 1.497zM43.114 6.162l-8.147 8.082v.02c-.258.298-.683.462-1.066.462s-.725-.185-1.014-.513l-8.271-8.174-8.24 8.184c-.29.328-.652.503-1.035.503-.383 0-.797-.185-1.066-.482L6.138 6.162l-.062-.052v31.005h37.1V6.11l-.062.052zm31.768 30.913v-24.41H62.42V6.11h33.384v6.554h-11.76v24.4h-9.16v.01zm25.155 0V6.11h30.091v6.8h-22.1v5.857h21.634v6.092h-21.634v6.103h22.1v6.092h-30.091v.02zm75.451 0V6.11h30.092v6.8h-22.1v5.857h21.634v6.092H183.48v6.103h22.1v6.092h-30.092v.02zm72.347.05L233.26 20.798 246.365 6.11h-10.931l-7.66 8.534-7.629-8.534h-10.931l13.053 14.688-14.575 16.277h11.055l9.016-10.103 9.016 10.154h11.056zM135.998 6.11v30.965h8.219V25.34h8.115l9.058 11.723h9.865s-9.047-11.846-8.934-11.723c10.103.226 13.892-19.24-3.291-19.24l-23.032.01zm8.281 6.318h14.575c4.761 0 4.886 6.339.176 6.339h-14.813l.062-6.339zm108.918 24.185c-2.195 0-3.954-1.785-3.954-4s1.759-4 3.954-4c2.184 0 3.954 1.785 3.954 4 0 2.205-1.77 4-3.954 4zm-4.824-4c0 2.636 2.153 4.759 4.824 4.759 2.66 0 4.813-2.133 4.813-4.76 0-2.635-2.153-4.779-4.813-4.779-2.671 0-4.824 2.144-4.824 4.78zm3.747-.297v-1.693h1.17c.6 0 1.222.082 1.222.82 0 .832-.694.862-1.47.862l-.922.01zm-.848 3.117h.848v-2.338h.932l1.553 2.338h.849l-1.605-2.41c.849-.082 1.511-.554 1.511-1.549 0-1.097-.672-1.63-1.925-1.63h-2.174l.011 5.59z"/></g><defs><clipPath id="clip0_1_856"><path fill="#fff" transform="translate(0 .5)" d="M0 0h258v42H0z"/></clipPath></defs></svg>