<svg width="21" height="21" fill="none" xmlns="http://www.w3.org/2000/svg"><g clip-path="url(#clip0_1_30)"><path d="M19.71 14.831c-.053-.042-3.96-2.858-5.032-2.656-.512.09-.805.44-1.392 1.138-.095.113-.322.384-.498.576a8.99 8.99 0 01-5.673-5.673c.193-.177.463-.404.579-.501.696-.584 1.045-.877 1.136-1.39.186-1.063-2.628-4.997-2.658-5.032A1.502 1.502 0 005.053.656C3.913.656.656 4.881.656 5.592c0 .041.06 4.244 5.242 9.515 5.267 5.177 9.469 5.237 9.51 5.237.712 0 4.936-3.257 4.936-4.397a1.498 1.498 0 00-.634-1.116z" fill="#fff"/></g><defs><clipPath id="clip0_1_30"><path fill="#fff" d="M0 0h21v21H0z"/></clipPath></defs></svg>