<svg width="17" height="17" fill="none" xmlns="http://www.w3.org/2000/svg"><g clip-path="url(#clip0_3_1018)"><path d="M15.113 12.228c-.041-.032-3.037-2.192-3.859-2.037-.392.07-.617.337-1.067.873a14.74 14.74 0 01-.382.442 6.893 6.893 0 01-4.35-4.35c.149-.136.356-.31.444-.384.534-.448.802-.673.871-1.066.143-.815-2.015-3.831-2.038-3.859a1.152 1.152 0 00-.857-.488C3 1.36.503 4.6.503 5.144c0 .032.046 3.254 4.02 7.296 4.038 3.97 7.26 4.015 7.291 4.015.546 0 3.785-2.497 3.785-3.371a1.15 1.15 0 00-.486-.856z" fill="#D6CECE"/></g><defs><clipPath id="clip0_3_1018"><path fill="#fff" transform="translate(0 .856)" d="M0 0h16.102v16.102H0z"/></clipPath></defs></svg>