<svg width="212" height="51" viewBox="0 0 212 51" fill="none" xmlns="http://www.w3.org/2000/svg">
<path fill-rule="evenodd" clip-rule="evenodd" d="M39.6601 7.60401H32.2725C31.2442 7.60401 30.802 7.99494 30.4545 9.14828L20.821 41.1507C20.7393 41.4133 20.6965 41.6904 20.6945 41.9701C20.6945 42.9732 21.4534 43.0872 22.1661 43.0872H194.422L193.093 47.4792H13.4972C11.5516 47.4792 9.35303 46.01 9.35303 43.4392C9.35303 42.6574 9.5433 41.8769 9.76437 41.1507L20.964 3.48899C21.5491 1.51627 23.3209 0.0263672 25.1082 0.0263672H41.8587L39.6601 7.60401Z" fill="#9CA09E"/>
<path fill-rule="evenodd" clip-rule="evenodd" d="M34.5821 39.7917H34.5502C32.62 39.7917 30.4688 39.1768 30.4688 36.4042C30.4688 36.0326 30.516 35.678 30.6282 35.3246L36.6707 14.734C37.335 12.4441 38.9166 11.0111 41.0052 11.0111H51.777C53.5488 11.0111 55.0666 12.4816 55.0666 14.6977C55.0666 15.3488 54.9555 16.0012 54.7663 16.6148L48.803 36.3485C48.1068 38.6565 46.5571 39.7917 44.5005 39.7917H34.5821ZM52.4413 39.7917L61.0145 11.0111H68.4175L67.2627 14.5851L70.1266 11.0111H75.4256C77.0072 11.0111 78.5888 12.3884 78.5888 14.3806C78.5888 15.2 78.3666 15.9999 78.1301 16.7636L71.0758 39.7917H63.6728L71.0758 15.4226H67.2638L59.9246 39.7917H52.4413ZM77.8134 31.8425H85.2956L84.1561 35.3233H87.9836L90.2778 27.5243H79.1101L82.9694 14.4362C83.6183 12.2396 85.2626 11.0111 87.2082 11.0111H98.5178C100.036 11.0111 101.681 12.1464 101.681 14.1579C101.681 14.5864 101.602 15.0136 101.492 15.4239L100.179 20.1706H92.5864L93.9623 15.4239H90.2767L87.9825 23.1685H99.2932L95.3382 36.6475C94.6893 38.8998 92.8075 39.793 90.941 39.793H80.0582C78.4293 39.793 76.7686 38.7134 76.7686 36.5543C76.7686 36.1271 76.8323 35.7181 76.9269 35.3259L77.8134 31.8425ZM99.4043 39.7917L106.697 15.4226H103.437L104.782 11.0111H108.009L109.812 5.12793H117.01L115.427 11.0111H118.228L116.836 15.4226H114.099L106.697 39.7917H99.4043ZM111.552 39.7917L120.236 11.0111H128.161C129.711 11.0111 131.435 11.7749 131.561 13.8408C131.594 14.4921 131.513 15.1444 131.325 15.7579L129.995 20.1706H126.801L128.161 15.4239H126.405L119.08 39.793L111.552 39.7917ZM134.599 11.0111H141.922L134.599 35.3246H138.412L145.861 11.0111H153.358L144.785 39.7917H137.288L138.411 36.685L135.594 39.7917H130.643C129.171 39.7917 127.148 39.2157 127.148 37.0358C127.148 36.4417 127.29 35.8631 127.448 35.3246L134.599 11.0111ZM160.84 39.7917H153.484C151.95 39.7917 150.606 38.3406 150.606 36.4974C150.606 36.1051 150.669 35.6961 150.78 35.3246L156.728 15.4226C157.406 13.1522 158.562 11.0111 160.839 11.0111H168.241L166.976 15.4226H163.924L157.913 35.3246H162.01L160.84 39.7917ZM163.497 39.7917L170.979 15.4226H168.655L170.047 11.0111H172.07L173.796 5.12793H181.405L179.774 11.0111H182.528L181.405 15.4226H178.414L170.979 39.7917H163.497ZM195.372 39.7917H187.589L188.666 36.8896L185.817 39.7917H180.44C178.951 39.7917 177.291 38.8235 177.291 36.8313C177.291 36.3304 177.386 35.8074 177.544 35.3246L181.405 23.1672L181.785 21.8081C182.243 20.2444 183.714 19.1648 185.089 19.1648H193.568L194.676 15.4226H184.49L185.817 11.0111H199.135C200.591 11.0111 202.647 11.5704 202.647 13.7101C202.647 14.2874 202.458 14.8828 202.314 15.4226L195.372 39.7917Z" fill="#9CA09E"/>
<path fill-rule="evenodd" clip-rule="evenodd" d="M37.984 35.3231H41.7795L47.711 15.4224H43.9308L37.984 35.3231ZM185.185 35.3231H188.665L192.224 24.0783H188.665L185.185 35.3231Z" fill="white"/>
</svg>
